<svg xmlns="http://www.w3.org/2000/svg" viewBox="0 0 32 32" fill="none">
  <style>
    .bg { fill: #c0265a; }
    .m { fill: #ffffff; }
    @media (prefers-color-scheme: dark) {
      .bg { fill: #a81f4c; }
    }
  </style>
  <circle class="bg" cx="16" cy="16" r="16" />
  <!-- Poppins 600 lowercase m -->
  <path
    class="m"
    d="M20.61 10.38Q22.65 10.38 23.90 11.63Q25.15 12.88 25.15 15.12L25.15 21.62L22.35 21.62L22.35 15.50Q22.35 14.20 21.69 13.51Q21.03 12.82 19.89 12.82Q18.75 12.82 18.08 13.51Q17.41 14.20 17.41 15.50L17.41 21.62L14.61 21.62L14.61 15.50Q14.61 14.20 13.95 13.51Q13.29 12.82 12.15 12.82Q10.99 12.82 10.32 13.51Q9.65 14.20 9.65 15.50L9.65 21.62L6.85 21.62L6.85 10.54L9.65 10.54L9.65 11.88Q10.19 11.18 11.04 10.78Q11.89 10.38 12.91 10.38Q14.21 10.38 15.23 10.93Q16.25 11.48 16.81 12.50Q17.35 11.54 18.38 10.96Q19.41 10.38 20.61 10.38"
  />
</svg>
